<svg width="140" height="38" viewBox="0 0 140 38" fill="none" xmlns="http://www.w3.org/2000/svg">
<circle cx="68.1849" cy="20.6268" r="6.32866" fill="#808080"/>
<path d="M79.0917 31.4873C81.421 31.4873 83.3574 30.4209 84.3677 28.1197L84.5641 31.1506H85.6025V10.8887H84.3115V20.5987C83.3293 18.4097 81.4771 17.3433 79.0917 17.3433C75.1347 17.3433 72.8896 20.4303 72.8896 24.4153C72.8896 28.4004 75.1347 31.4873 79.0917 31.4873ZM79.232 30.3087C76.0328 30.3087 74.2086 27.8391 74.2086 24.4153C74.2086 21.0196 76.0328 18.522 79.232 18.522C82.4593 18.522 84.2835 21.0196 84.2835 24.4153C84.2835 27.8391 82.4593 30.3087 79.232 30.3087Z" fill="white"/>
<path d="M93.5258 31.4873C96.5567 31.4873 98.4931 30.0561 99.2788 27.2778H97.9599C97.4267 29.2703 95.9112 30.3087 93.5258 30.3087C90.3546 30.3087 88.4463 28.1197 88.334 24.4434H99.2788V23.5454C99.2788 19.869 96.8654 17.3433 93.3574 17.3433C89.5969 17.3433 87.0431 20.2338 87.0431 24.4434C87.0431 28.681 89.625 31.4873 93.5258 31.4873ZM93.3574 18.522C96.1357 18.522 97.9599 20.4584 97.9599 23.377H88.3621C88.6708 20.4303 90.6072 18.522 93.3574 18.522Z" fill="white"/>
<path d="M99.4928 27.5023C99.4928 29.9438 101.317 31.4873 104.179 31.4873C107.126 31.4873 109.091 29.9438 109.091 27.6426C109.091 25.7624 108.052 24.6679 105.695 24.0505L103.45 23.4612C101.822 23.0402 101.036 22.2264 101.036 21.0758C101.036 19.42 102.215 18.522 104.376 18.522C106.396 18.522 107.631 19.5323 107.715 21.2722H108.978C108.894 18.8307 107.154 17.3433 104.376 17.3433C101.598 17.3433 99.7454 18.8307 99.7454 21.0758C99.7454 22.7315 100.84 24.0224 103.141 24.6118L105.414 25.2011C107.154 25.6501 107.8 26.3236 107.8 27.6426C107.8 29.2984 106.396 30.3087 104.123 30.3087C102.047 30.3087 100.756 29.2423 100.756 27.5023H99.4928Z" fill="white"/>
<path d="M111.36 13.5547C111.978 13.5547 112.539 13.0215 112.539 12.4041C112.539 11.7586 111.978 11.1974 111.36 11.1974C110.715 11.1974 110.182 11.7586 110.182 12.4041C110.182 13.0215 110.715 13.5547 111.36 13.5547ZM110.715 31.1506H112.006V17.6801H110.715V31.1506Z" fill="white"/>
<path d="M113.444 23.9944C113.444 27.5584 115.717 30.6454 119.59 30.6454C122.031 30.6454 124.024 29.3826 124.95 27.2217V30.8699C124.95 33.9289 122.957 35.9775 119.983 35.9775C117.401 35.9775 115.577 34.6024 115.071 32.2451H113.809C114.37 35.3321 116.699 37.1562 119.954 37.1562C123.715 37.1562 126.213 34.6305 126.213 30.8699V17.6801H125.174L125.006 20.8232C124.108 18.5781 122.228 17.3433 119.73 17.3433C115.745 17.3433 113.444 20.4303 113.444 23.9944ZM114.763 23.9944C114.763 21.0477 116.531 18.522 119.73 18.522C122.957 18.522 124.725 20.8512 124.725 23.9663C124.725 27.1375 122.873 29.4668 119.674 29.4668C116.559 29.4668 114.763 26.9691 114.763 23.9944Z" fill="white"/>
<path d="M129.953 31.1506V24.1908C129.953 20.7951 131.665 18.522 134.724 18.522C137.166 18.522 138.709 19.6445 138.709 23.2086V31.1506H140V22.956C140 19.5884 138.569 17.3433 134.752 17.3433C132.732 17.3433 130.879 18.4097 129.981 20.29L129.701 17.6801H128.662V31.1506H129.953Z" fill="white"/>
<path d="M9.62581 20.9354C14.2002 20.9354 17.8204 18.2413 18.6904 14.2002H15.7717C15.014 16.6978 12.6567 18.2975 9.68194 18.2975C5.58465 18.2975 2.89055 15.2105 2.89055 10.4677C2.89055 5.72497 5.58465 2.63798 9.68194 2.63798C12.6286 2.63798 14.9018 4.2376 15.6595 6.87558H18.6062C17.8484 2.72217 14.3405 0 9.76613 0C3.95697 0 0 4.2376 0 10.4958C0 16.782 3.84471 20.9354 9.62581 20.9354Z" fill="white"/>
<path d="M27.6472 6.79139C27.114 6.67913 26.7211 6.62301 26.2441 6.62301C24.3638 6.62301 22.9887 7.57717 22.4274 9.00841L22.259 6.93171H19.7894V20.6267H22.4274V13.3583C22.4274 10.7203 23.9709 9.20486 26.4686 9.20486H27.6472V6.79139Z" fill="white"/>
<path d="M37.7828 6.90364V14.144C37.7828 17.0907 36.4638 18.6342 34.0503 18.6342C32.0298 18.6342 30.7669 17.5117 30.7669 14.565V6.90364H28.1289V15.435C28.1289 18.8026 29.925 20.9635 33.1242 20.9635C35.1448 20.9635 36.969 19.9813 37.7547 18.55L38.0354 20.6267H40.3927V6.90364H37.7828Z" fill="white"/>
<path d="M42.396 26.7727H45.034V18.3817C45.932 20.0655 47.7561 20.9916 49.9451 20.9916C54.0143 20.9916 56.3155 17.8484 56.3155 13.667C56.3155 9.45743 53.874 6.51075 49.9451 6.51075C47.7561 6.51075 45.9039 7.49298 44.9778 9.37324L44.7814 6.90364H42.396V26.7727ZM45.062 13.7792C45.062 10.9167 46.6897 8.92422 49.3838 8.92422C52.0779 8.92422 53.6775 10.9448 53.6775 13.7792C53.6775 16.5856 52.0779 18.6062 49.3838 18.6062C46.6897 18.6062 45.062 16.5856 45.062 13.7792Z" fill="white"/>
<path d="M61.4121 20.9635C63.6291 20.9635 65.5094 19.9813 66.211 18.4097L66.4916 20.6267H68.7367V12.0112C68.7367 8.30682 66.4355 6.51075 63.0398 6.51075C59.5038 6.51075 57.1465 8.39101 57.1465 11.2535H59.4477C59.4477 9.59775 60.7105 8.61552 62.9276 8.61552C64.7798 8.61552 66.1549 9.42937 66.1549 11.7306V12.1235L61.8331 12.4602C58.6058 12.7128 56.7255 14.2844 56.7255 16.8101C56.7255 19.3077 58.4654 20.9635 61.4121 20.9635ZM62.1698 18.9149C60.458 18.9149 59.3915 18.1852 59.3915 16.7259C59.3915 15.3788 60.3457 14.4808 62.675 14.2563L66.1829 13.9757V14.7053C66.1829 17.2872 64.6675 18.9149 62.1698 18.9149Z" fill="white"/>
</svg>
