<svg width="141" height="38" viewBox="0 0 141 38" fill="none" xmlns="http://www.w3.org/2000/svg">
<circle cx="68.9169" cy="20.6265" r="6.32866" fill="#3B00EC"/>
<path d="M79.8236 31.4873C82.1529 31.4873 84.0893 30.4209 85.0996 28.1197L85.296 31.1506H86.3344V10.8887H85.0435V20.5987C84.0612 18.4097 82.209 17.3433 79.8236 17.3433C75.8667 17.3433 73.6216 20.4303 73.6216 24.4153C73.6216 28.4004 75.8667 31.4873 79.8236 31.4873ZM79.964 30.3087C76.7647 30.3087 74.9406 27.8391 74.9406 24.4153C74.9406 21.0196 76.7647 18.522 79.964 18.522C83.1913 18.522 85.0154 21.0196 85.0154 24.4153C85.0154 27.8391 83.1913 30.3087 79.964 30.3087Z" fill="#808080"/>
<path d="M94.2577 31.4873C97.2886 31.4873 99.225 30.0561 100.011 27.2778H98.6918C98.1586 29.2703 96.6432 30.3087 94.2577 30.3087C91.0866 30.3087 89.1782 28.1197 89.066 24.4434H100.011V23.5454C100.011 19.869 97.5973 17.3433 94.0894 17.3433C90.3288 17.3433 87.7751 20.2338 87.7751 24.4434C87.7751 28.681 90.3569 31.4873 94.2577 31.4873ZM94.0894 18.522C96.8677 18.522 98.6918 20.4584 98.6918 23.377H89.094C89.4027 20.4303 91.3391 18.522 94.0894 18.522Z" fill="#808080"/>
<path d="M100.225 27.5023C100.225 29.9438 102.049 31.4873 104.911 31.4873C107.858 31.4873 109.823 29.9438 109.823 27.6426C109.823 25.7624 108.784 24.6679 106.427 24.0505L104.182 23.4612C102.554 23.0402 101.768 22.2264 101.768 21.0758C101.768 19.42 102.947 18.522 105.108 18.522C107.128 18.522 108.363 19.5323 108.447 21.2722H109.71C109.626 18.8307 107.886 17.3433 105.108 17.3433C102.33 17.3433 100.477 18.8307 100.477 21.0758C100.477 22.7315 101.572 24.0224 103.873 24.6118L106.146 25.2011C107.886 25.6501 108.532 26.3236 108.532 27.6426C108.532 29.2984 107.128 30.3087 104.855 30.3087C102.779 30.3087 101.488 29.2423 101.488 27.5023H100.225Z" fill="#808080"/>
<path d="M112.092 13.5547C112.71 13.5547 113.271 13.0215 113.271 12.4041C113.271 11.7586 112.71 11.1974 112.092 11.1974C111.447 11.1974 110.913 11.7586 110.913 12.4041C110.913 13.0215 111.447 13.5547 112.092 13.5547ZM111.447 31.1506H112.738V17.6801H111.447V31.1506Z" fill="#808080"/>
<path d="M114.176 23.9944C114.176 27.5584 116.449 30.6454 120.322 30.6454C122.763 30.6454 124.756 29.3826 125.682 27.2217V30.8699C125.682 33.9289 123.689 35.9775 120.714 35.9775C118.133 35.9775 116.308 34.6024 115.803 32.2451H114.54C115.102 35.3321 117.431 37.1562 120.686 37.1562C124.447 37.1562 126.945 34.6305 126.945 30.8699V17.6801H125.906L125.738 20.8232C124.84 18.5781 122.96 17.3433 120.462 17.3433C116.477 17.3433 114.176 20.4303 114.176 23.9944ZM115.495 23.9944C115.495 21.0477 117.263 18.522 120.462 18.522C123.689 18.522 125.457 20.8512 125.457 23.9663C125.457 27.1375 123.605 29.4668 120.406 29.4668C117.291 29.4668 115.495 26.9691 115.495 23.9944Z" fill="#808080"/>
<path d="M130.685 31.1506V24.1908C130.685 20.7951 132.397 18.522 135.456 18.522C137.897 18.522 139.441 19.6445 139.441 23.2086V31.1506H140.732V22.956C140.732 19.5884 139.301 17.3433 135.484 17.3433C133.463 17.3433 131.611 18.4097 130.713 20.29L130.433 17.6801H129.394V31.1506H130.685Z" fill="#808080"/>
<path d="M10.3577 20.9354C14.9321 20.9354 18.5523 18.2413 19.4223 14.2002H16.5037C15.746 16.6978 13.3886 18.2975 10.4139 18.2975C6.31659 18.2975 3.62248 15.2105 3.62248 10.4677C3.62248 5.72497 6.31659 2.63798 10.4139 2.63798C13.3605 2.63798 15.6337 4.2376 16.3914 6.87558H19.3381C18.5804 2.72217 15.0724 0 10.4981 0C4.6889 0 0.731934 4.2376 0.731934 10.4958C0.731934 16.782 4.57665 20.9354 10.3577 20.9354Z" fill="white"/>
<path d="M28.3792 6.79139C27.846 6.67913 27.4531 6.62301 26.976 6.62301C25.0957 6.62301 23.7206 7.57717 23.1593 9.00841L22.991 6.93171H20.5214V20.6267H23.1593V13.3583C23.1593 10.7203 24.7028 9.20486 27.2005 9.20486H28.3792V6.79139Z" fill="white"/>
<path d="M38.5147 6.90364V14.144C38.5147 17.0907 37.1957 18.6342 34.7823 18.6342C32.7617 18.6342 31.4988 17.5117 31.4988 14.565V6.90364H28.8609V15.435C28.8609 18.8026 30.6569 20.9635 33.8562 20.9635C35.8768 20.9635 37.7009 19.9813 38.4867 18.55L38.7673 20.6267H41.1246V6.90364H38.5147Z" fill="white"/>
<path d="M43.1279 26.7727H45.7659V18.3817C46.6639 20.0655 48.4881 20.9916 50.677 20.9916C54.7462 20.9916 57.0474 17.8484 57.0474 13.667C57.0474 9.45743 54.6059 6.51075 50.677 6.51075C48.4881 6.51075 46.6359 7.49298 45.7098 9.37324L45.5133 6.90364H43.1279V26.7727ZM45.7939 13.7792C45.7939 10.9167 47.4216 8.92422 50.1157 8.92422C52.8098 8.92422 54.4095 10.9448 54.4095 13.7792C54.4095 16.5856 52.8098 18.6062 50.1157 18.6062C47.4216 18.6062 45.7939 16.5856 45.7939 13.7792Z" fill="white"/>
<path d="M62.1441 20.9635C64.3611 20.9635 66.2413 19.9813 66.9429 18.4097L67.2236 20.6267H69.4687V12.0112C69.4687 8.30682 67.1674 6.51075 63.7717 6.51075C60.2357 6.51075 57.8784 8.39101 57.8784 11.2535H60.1796C60.1796 9.59775 61.4425 8.61552 63.6595 8.61552C65.5117 8.61552 66.8868 9.42937 66.8868 11.7306V12.1235L62.565 12.4602C59.3377 12.7128 57.4574 14.2844 57.4574 16.8101C57.4574 19.3077 59.1974 20.9635 62.1441 20.9635ZM62.9018 18.9149C61.1899 18.9149 60.1235 18.1852 60.1235 16.7259C60.1235 15.3788 61.0776 14.4808 63.4069 14.2563L66.9149 13.9757V14.7053C66.9149 17.2872 65.3994 18.9149 62.9018 18.9149Z" fill="white"/>
</svg>
